# xmcd CD database file
#
# Track frame offsets:
#	150
#	26677
#	70623
#	107038
#	132388
#	165560
#	199588
#	247644
#
# Disc length: 3937 seconds
#
# Revision: 0
# Processed by: cddbd v1.5.2PL0 Copyright (c) Steve Scherf et al.
# Submitted via: CDex 1.51
#
DISCID=5f0f5f08
DTITLE=Israel Sandoval - Marzo
DYEAR=2006
DGENRE=Jazz
TTITLE0=Acuarelas en el aire
TTITLE1=Marzo
TTITLE2=El principio de la verdad
TTITLE3=Quién anda ahí dentro
TTITLE4=Formentera (con Concha Buika)
TTITLE5=Mario
TTITLE6=Formentera (Instrumental)
TTITLE7=Blues para Nacho
EXTD=YEAR: 2006
EXTT0=
EXTT1=
EXTT2=
EXTT3=
EXTT4=
EXTT5=
EXTT6=
EXTT7=
PLAYORDER=
